<svg xmlns="http://www.w3.org/2000/svg" width="256" height="256" viewBox="0 0 100 100"><rect width="100" height="100" rx="20" fill="#6777ef"></rect><path fill="#fff" d="M73.65 26.30L73.65 26.30Q73.65 27.70 72.80 28.70Q71.95 29.70 70.85 30.20L70.85 30.20Q68.25 28.40 64.75 26.80Q61.25 25.20 55.65 25.20L55.65 25.20Q51.05 25.20 47.15 26.80Q43.25 28.40 40.35 31.50Q37.45 34.60 35.80 39.30Q34.15 44.00 34.15 50.10L34.15 50.10Q34.15 56.30 35.75 60.90Q37.35 65.50 40.20 68.60Q43.05 71.70 47.05 73.25Q51.05 74.80 55.95 74.80L55.95 74.80Q61.15 74.80 65 73.35Q68.85 71.90 71.45 69.90L71.45 69.90Q72.45 70.30 73.35 71.35Q74.25 72.40 74.25 73.80L74.25 73.80Q74.25 75.90 71.85 77.60L71.85 77.60Q69.55 79.20 65.55 80.45Q61.55 81.70 55.35 81.70L55.35 81.70Q49.05 81.70 43.65 79.70Q38.25 77.70 34.30 73.75Q30.35 69.80 28.05 63.90Q25.75 58 25.75 50.10L25.75 50.10Q25.75 42.20 28.10 36.25Q30.45 30.30 34.45 26.30Q38.45 22.30 43.80 20.30Q49.15 18.30 55.05 18.30L55.05 18.30Q59.15 18.30 62.60 19Q66.05 19.70 68.50 20.85Q70.95 22 72.30 23.45Q73.65 24.90 73.65 26.30Z"></path></svg>